#!OML:ASF E:\Steps\Project 1\Capture day 1\Session 2\Subject.ASF
:FULLY-SPECIFIED
:DEGREES
128
root 8.94547 16.3377 30.7803 -152.975 -2.32888 179.712
lowerback -29.6598 -0.936519 -5.41279
upperback -2.09047 -0.190306 -0.281659
thorax 13.2662 -0.716667 2.48618
lowerneck 3.68102 -4.67247 5.91895
upperneck -5.68166 -6.32254 -5.37097
head -2.89471 -3.15004 -2.56061
rclavicle 6.55989e-015 -1.66979e-014
rhumerus -34.3402 -22.2618 -79.0354
rradius 30.3409
rwrist 2.70458
rhand -7.73265 -53.4059
rfingers 7.12502
rthumb 18.1661 -82.5776
lclavicle 6.55989e-015 -1.66979e-014
lhumerus -29.2106 6.93675 82.0737
lradius 24.7796
lwrist -5.97576
lhand -19.7117 -15.8571
lfingers 7.12502
lthumb 6.6181 14.0195
rfemur -23.9557 5.78142 18.6626
rtibia 6.24415
rfoot -18.8433 -7.92501
rtoes -32.3072
lfemur -24.7734 -9.08163 -17.0007
ltibia 7.55053
lfoot -8.37034 4.27644
ltoes -35.807
129
root 8.94715 16.3426 30.7825 -153.136 -2.38715 179.658
lowerback -29.4684 -0.981908 -5.50615
upperback -2.10727 -0.228395 -0.263161
thorax 13.1636 -0.734364 2.54497
lowerneck 3.70184 -4.68246 5.91761
upperneck -5.69874 -6.33384 -5.35124
head -2.90415 -3.15574 -2.5527
rclavicle -2.68359e-015 -1.78906e-014
rhumerus -34.367 -22.2019 -79.0623
rradius 30.4447
rwrist 2.64867
rhand -7.71422 -53.8818
rfingers 7.12502
rthumb 18.1838 -83.0518
lclavicle -2.68359e-015 -1.78906e-014
lhumerus -29.2313 6.94794 82.0881
lradius 24.8425
lwrist -5.99829
lhand -19.6198 -15.8182
lfingers 7.12502
lthumb 6.70684 14.0556
rfemur -23.7534 7.1392 18.3166
rtibia 6.26425
rfoot -18.9277 -9.20001
rtoes -31.3715
lfemur -24.6258 -9.04225 -17.0959
ltibia 7.58231
lfoot -8.35102 4.16115
ltoes -34.9039
130
root 8.95234 16.3491 30.7882 -153.288 -2.44586 179.605
lowerback -29.1923 -1.05319 -5.64667
upperback -2.15403 -0.294819 -0.238408
thorax 12.9905 -0.766085 2.62644
lowerneck 3.77027 -4.69082 5.88238
upperneck -5.76315 -6.34291 -5.30388
head -2.93563 -3.15993 -2.52828
rclavicle -6.5102e-015 -5.96354e-015
rhumerus -34.41 -21.9868 -79.1616
rradius 30.5809
rwrist 2.41275
rhand -7.88592 -54.4493
rfingers 7.12502
rthumb 18.0186 -83.6346
lclavicle -6.5102e-015 -5.96354e-015
lhumerus -29.2956 7.15796 82.014
lradius 24.8793
lwrist -6.21824
lhand -19.5369 -16.1044
lfingers 7.12502
lthumb 6.78686 13.7668
rfemur -23.5121 6.79033 18.4079
rtibia 6.11064
rfoot -18.9202 -8.87002
rtoes -31.5009
lfemur -24.5148 -8.76458 -17.2433
ltibia 7.67182
lfoot -8.3283 3.83011
ltoes -35.0961
131
root 8.95162 16.3476 30.7909 -153.246 -2.4093 179.608
lowerback -29.2139 -1.04176 -5.62813
upperback -2.18951 -0.290839 -0.260778
thorax 12.959 -0.764683 2.59285
lowerneck 3.72981 -4.70253 5.89793
upperneck -5.68429 -6.35244 -5.27623
head -2.9012 -3.16529 -2.52222
rclavicle 2.83268e-015 -1.27222e-014
rhumerus -34.4218 -21.7418 -79.3181
rradius 30.773
rwrist 2.05547
rhand -7.95095 -54.8444
rfingers 7.12502
rthumb 17.956 -84.0355
lclavicle 2.83268e-015 -1.27222e-014
lhumerus -29.3194 7.20811 81.9583
lradius 24.9623
lwrist -6.24597
lhand -19.537 -16.3059
lfingers 7.12502
lthumb 6.78675 13.5653
rfemur -23.6417 6.82375 18.3676
rtibia 6.23531
rfoot -18.9776 -8.88794
rtoes -31.836
lfemur -24.5706 -8.77963 -17.2391
ltibia 7.66723
lfoot -8.29312 3.89015
ltoes -36.0087
132
root 8.95331 16.3464 30.7927 -153.255 -2.40322 179.625
lowerback -29.2076 -1.02704 -5.63704
upperback -2.21651 -0.273345 -0.272327
thorax 12.9235 -0.757594 2.59154
lowerneck 3.67404 -4.70964 5.99529
upperneck -5.53075 -6.351 -5.30741
head -2.84449 -3.16466 -2.5522
rclavicle -1.82882e-014 -6.75868e-015
rhumerus -34.4844 -21.6066 -79.4099
rradius 30.9526
rwrist 1.87532
rhand -7.86909 -54.8303
rfingers 7.12502
rthumb 18.0348 -84.0141
lclavicle -1.82882e-014 -6.75868e-015
lhumerus -29.3126 6.98347 81.9319
lradius 25.0128
lwrist -6.02736
lhand -19.5035 -16.0653
lfingers 7.12502
lthumb 6.81909 13.8049
rfemur -23.6834 6.9551 18.3556
rtibia 6.30509
rfoot -18.8624 -8.95239
rtoes -31.6111
lfemur -24.5668 -8.75065 -17.2062
ltibia 7.63681
lfoot -8.22018 3.84819
ltoes -35.8552
133
root 8.95565 16.3472 30.7957 -153.252 -2.51654 179.575
lowerback -29.1507 -1.06889 -5.71612
upperback -2.27319 -0.315773 -0.270641
thorax 12.8358 -0.78094 2.62038
lowerneck 3.72681 -4.72992 6.03444
upperneck -5.49389 -6.36967 -5.31513
head -2.84528 -3.17277 -2.56027
rclavicle -1.30204e-014 -1.03368e-014
rhumerus -34.5441 -21.6166 -79.3986
rradius 31.0059
rwrist 1.88764
rhand -7.81971 -54.5042
rfingers 7.12502
rthumb 18.0823 -83.6836
lclavicle -1.30204e-014 -1.03368e-014
lhumerus -29.2582 6.89822 81.8808
lradius 24.8968
lwrist -5.99508
lhand -19.5004 -15.8073
lfingers 7.12502
lthumb 6.82207 14.0628
rfemur -23.5998 7.0374 18.3061
rtibia 6.14416
rfoot -18.6553 -9.10125
rtoes -31.4686
lfemur -24.6459 -8.75109 -17.2288
ltibia 7.72497
lfoot -8.23295 3.72692
ltoes -36.0209
